<svg width="20" height="20" viewBox="0 0 20 20" fill="none" xmlns="http://www.w3.org/2000/svg">
<path d="M9.99996 1.66667C8.35179 1.66667 6.74062 2.15541 5.37021 3.07109C3.9998 3.98677 2.9317 5.28826 2.30097 6.81098C1.67024 8.33369 1.50521 10.0092 1.82675 11.6258C2.1483 13.2423 2.94197 14.7271 4.10741 15.8926C5.27284 17.058 6.7577 17.8517 8.37421 18.1732C9.99072 18.4948 11.6663 18.3297 13.189 17.699C14.7117 17.0683 16.0132 16.0002 16.9289 14.6298C17.8446 13.2593 18.3333 11.6482 18.3333 10C18.3333 8.90566 18.1177 7.82202 17.699 6.81098C17.2802 5.79993 16.6663 4.88127 15.8925 4.10745C15.1187 3.33363 14.2 2.7198 13.189 2.30101C12.1779 1.88222 11.0943 1.66667 9.99996 1.66667ZM9.99996 16.6667C8.68142 16.6667 7.39249 16.2757 6.29616 15.5431C5.19983 14.8106 4.34535 13.7694 3.84077 12.5512C3.33618 11.3331 3.20416 9.99261 3.46139 8.6994C3.71863 7.4062 4.35357 6.21831 5.28592 5.28596C6.21827 4.35361 7.40615 3.71867 8.69936 3.46144C9.99257 3.2042 11.333 3.33622 12.5512 3.84081C13.7694 4.34539 14.8105 5.19988 15.5431 6.2962C16.2756 7.39253 16.6666 8.68146 16.6666 10C16.6666 11.7681 15.9643 13.4638 14.714 14.7141C13.4638 15.9643 11.7681 16.6667 9.99996 16.6667Z" fill="#B8B8B8"/>
<path d="M12.2499 6.99167L9.09987 11.1583L7.74154 9.4C7.60562 9.2254 7.4059 9.11194 7.18633 9.0846C6.96675 9.05725 6.74531 9.11824 6.57071 9.25417C6.39611 9.39009 6.28265 9.58981 6.2553 9.80938C6.22795 10.029 6.28895 10.2504 6.42487 10.425L8.44987 13.0167C8.52835 13.116 8.62842 13.1961 8.74249 13.251C8.85656 13.3059 8.98163 13.334 9.10821 13.3333C9.23547 13.333 9.36098 13.3036 9.47509 13.2472C9.58921 13.1909 9.68891 13.1092 9.76654 13.0083L13.5749 8.00833C13.7097 7.83152 13.7687 7.6084 13.7391 7.38804C13.7094 7.16769 13.5934 6.96815 13.4165 6.83333C13.2397 6.69851 13.0166 6.63946 12.7962 6.66915C12.5759 6.69884 12.3764 6.81486 12.2415 6.99167H12.2499Z" fill="#B8B8B8"/>
</svg>
